<?xml version="1.0" encoding="utf-8"?>
<svg xmlns="http://www.w3.org/2000/svg">
	<link xmlns="http://www.w3.org/1999/xhtml" rel="stylesheet" href="../css/popup.css" type="text/css" />
	<defs>
		<symbol id="secure-search-icon" viewBox="0 0 30 29" fill="none">
			<path fill-rule="evenodd" clip-rule="evenodd"
				d="M9.25299 7.26904H17.7439C18.7106 7.26904 19.4988 8.05084 19.4988 9.02255V13.6509C19.4988 16.2928 18.4967 18.4182 17.3037 19.8831C16.7086 20.6137 16.0558 21.1931 15.4354 21.5974C14.8508 21.9783 14.1739 22.2828 13.5472 22.2828C12.8915 22.2828 12.1938 21.9672 11.5915 21.5702C10.956 21.1513 10.2956 20.5553 9.69723 19.8156C8.49983 18.3353 7.49805 16.2114 7.49805 13.6509V9.02255C7.49805 8.05085 8.28624 7.26904 9.25299 7.26904ZM13.5761 8.3281C13.5761 8.30822 13.5753 8.28853 13.5738 8.26904H17.7439C18.1608 8.26904 18.4988 8.60561 18.4988 9.02255V13.6509C18.4988 18.3975 14.9137 21.2677 13.5579 21.2828C13.5698 21.2296 13.5761 21.174 13.5761 21.1165V8.3281Z"
				style="fill:var(--securesearch-icon-fill)" />
			<path fill-rule="evenodd" clip-rule="evenodd"
				d="M0.410156 14.07C0.410156 6.84084 6.27052 0.980469 13.4997 0.980469C20.7288 0.980469 26.5892 6.84084 26.5892 14.07C26.5892 17.2374 25.4641 20.1421 23.5918 22.4062L29.2645 28.0788C29.4597 28.2741 29.4597 28.5907 29.2645 28.7859C29.0692 28.9812 28.7526 28.9812 28.5574 28.7859L22.9246 23.1532C20.5438 25.6231 17.2011 27.1595 13.4997 27.1595C6.27052 27.1595 0.410156 21.2991 0.410156 14.07ZM13.4997 1.98047C6.82281 1.98047 1.41016 7.39312 1.41016 14.07C1.41016 20.7468 6.82281 26.1595 13.4997 26.1595C20.1765 26.1595 25.5892 20.7468 25.5892 14.07C25.5892 7.39312 20.1765 1.98047 13.4997 1.98047Z"
				style="fill:var(--securesearch-icon-fill)" />
		</symbol>
		<symbol id="browser-cleanup-icon" viewBox="0 0 30 27">
			<path
				d="M20.1443 3.12256C19.7297 3.12256 19.3936 3.4587 19.3936 3.87335C19.3936 4.288 19.7297 4.62414 20.1443 4.62414C20.559 4.62414 20.8951 4.288 20.8951 3.87335C20.8951 3.4587 20.559 3.12256 20.1443 3.12256Z"
				fill="var(--green)" />
			<path
				d="M22.3965 3.87335C22.3965 3.4587 22.7326 3.12256 23.1473 3.12256C23.5619 3.12256 23.8981 3.4587 23.8981 3.87335C23.8981 4.288 23.5619 4.62414 23.1473 4.62414C22.7326 4.62414 22.3965 4.288 22.3965 3.87335Z"
				fill="var(--green)" />
			<path
				d="M26.1502 3.12256C25.7356 3.12256 25.3994 3.4587 25.3994 3.87335C25.3994 4.288 25.7356 4.62414 26.1502 4.62414C26.5649 4.62414 26.901 4.288 26.901 3.87335C26.901 3.4587 26.5649 3.12256 26.1502 3.12256Z"
				fill="var(--green)" />
			<path fill-rule="evenodd" clip-rule="evenodd"
				d="M2.65016 0.980469H27.6624C28.6234 0.980469 29.4024 1.75949 29.4024 2.72047V20.7611C29.4024 21.722 28.6234 22.5011 27.6624 22.5011H21.0221L21.0931 21.5011H27.6624C28.0711 21.5011 28.4024 21.1698 28.4024 20.7611V6.97021H1.91016V20.7611C1.91016 21.1698 2.24147 21.5011 2.65016 21.5011H9.22242L9.2942 22.5011H2.65016C1.68918 22.5011 0.910156 21.722 0.910156 20.7611V2.72047C0.910156 1.7595 1.68918 0.980469 2.65016 0.980469ZM1.91016 5.97021H28.4024V2.72047C28.4024 2.31178 28.0711 1.98047 27.6624 1.98047H2.65016C2.24147 1.98047 1.91016 2.31178 1.91016 2.72047V5.97021Z"
				fill="var(--green)" />
			<path
				d="M13.9121 15.1528C13.9121 14.8767 13.6883 14.6528 13.4121 14.6528C13.136 14.6528 12.9121 14.8767 12.9121 15.1528V22.3763C12.9121 22.6524 13.136 22.8763 13.4121 22.8763C13.6883 22.8763 13.9121 22.6524 13.9121 22.3763V15.1528Z"
				fill="var(--green)" />
			<path
				d="M16.9014 14.6528C17.1775 14.6528 17.4014 14.8767 17.4014 15.1528V22.3763C17.4014 22.6524 17.1775 22.8763 16.9014 22.8763C16.6252 22.8763 16.4014 22.6524 16.4014 22.3763V15.1528C16.4014 14.8767 16.6252 14.6528 16.9014 14.6528Z"
				fill="var(--green)" />
			<path fill-rule="evenodd" clip-rule="evenodd"
				d="M13.2427 9.31152C13.0274 9.31152 12.8364 9.44924 12.7683 9.65341L12.2439 11.2266H8.40137C8.12522 11.2266 7.90137 11.4504 7.90137 11.7266C7.90137 12.0027 8.12522 12.2266 8.40137 12.2266H9.43756L10.4085 25.7518C10.4273 26.0133 10.645 26.216 10.9072 26.216H19.4214C19.6838 26.216 19.9016 26.0131 19.9202 25.7513L20.8798 12.2266H21.9156C22.1918 12.2266 22.4156 12.0027 22.4156 11.7266C22.4156 11.4504 22.1918 11.2266 21.9156 11.2266H18.072L17.5476 9.65341C17.4795 9.44924 17.2884 9.31152 17.0732 9.31152H13.2427ZM17.0179 11.2266L16.7129 10.3115H13.603L13.298 11.2266H17.0179ZM10.4401 12.2266H19.8773L18.9556 25.216H11.3726L10.4401 12.2266Z"
				fill="var(--green)" />
		</symbol>
		<symbol id="metadata-cleanup-icon" viewBox="0 0 30 23">
			<path
				d="M26.3039 5.15438C26.3039 5.89925 25.7 6.50309 24.9552 6.50309C24.2103 6.50309 23.6064 5.89925 23.6064 5.15438C23.6064 4.4095 24.2103 3.80566 24.9552 3.80566C25.7 3.80566 26.3039 4.4095 26.3039 5.15438Z"
				style="fill:var(--metadata-icon-fill)" />
			<path
				d="M12.3455 13.3621C12.5746 13.2078 12.6352 12.8971 12.481 12.668C12.3268 12.439 12.0161 12.3783 11.787 12.5326L8.48503 14.756C7.78235 15.2292 7.78233 16.2633 8.48501 16.7365L11.787 18.9601C12.016 19.1144 12.3268 19.0537 12.481 18.8247C12.6352 18.5956 12.5746 18.2849 12.3456 18.1307L9.04357 15.9071C8.92949 15.8302 8.92949 15.6623 9.04358 15.5855L12.3455 13.3621Z"
				style="fill:var(--metadata-icon-fill)" />
			<path
				d="M18.2416 12.668C18.0874 12.8971 18.1481 13.2078 18.3771 13.3621L21.6791 15.5855C21.7932 15.6623 21.7932 15.8302 21.6791 15.9071L18.3771 18.1307C18.1481 18.2849 18.0874 18.5956 18.2417 18.8247C18.3959 19.0537 18.7066 19.1144 18.9357 18.9601L22.2377 16.7365C22.9403 16.2633 22.9403 15.2292 22.2376 14.756L18.9357 12.5326C18.7066 12.3783 18.3959 12.439 18.2416 12.668Z"
				style="fill:var(--metadata-icon-fill)" />
			<path
				d="M16.9728 12.7811C17.0672 12.5216 16.9334 12.2347 16.6739 12.1402C16.4145 12.0458 16.1275 12.1796 16.0331 12.4391L13.7496 18.713C13.6551 18.9725 13.7889 19.2594 14.0484 19.3539C14.3079 19.4483 14.5948 19.3145 14.6893 19.055L16.9728 12.7811Z"
				style="fill:var(--metadata-icon-fill)" />
			<path fill-rule="evenodd" clip-rule="evenodd"
				d="M28.1252 0.652344H2.52859C1.61102 0.652344 0.867188 1.39618 0.867188 2.31374V20.8263C0.867188 21.7439 1.61103 22.4877 2.52859 22.4877H28.1252C29.0428 22.4877 29.7866 21.7439 29.7866 20.8263V2.31374C29.7866 1.39618 29.0428 0.652344 28.1252 0.652344ZM28.1252 1.65234H2.52859C2.16331 1.65234 1.86719 1.94846 1.86719 2.31374V11.2998L8.93498 4.23199C9.40121 3.76577 10.1571 3.76577 10.6233 4.23199L15.4184 9.02704C15.4941 9.10274 15.6168 9.10274 15.6925 9.02704L18.3334 6.38609C18.7997 5.91987 19.5556 5.91987 20.0218 6.38609L28.7866 15.1509V2.31374C28.7866 1.94846 28.4905 1.65234 28.1252 1.65234ZM28.7866 16.5652L19.3147 7.0932C19.239 7.0175 19.1163 7.0175 19.0406 7.0932L16.3996 9.73415C15.9334 10.2004 15.1775 10.2004 14.7113 9.73415L9.91621 4.9391C9.84052 4.8634 9.71779 4.8634 9.64209 4.9391L1.86719 12.714V20.8263C1.86719 21.1916 2.16331 21.4877 2.52859 21.4877H28.1252C28.4905 21.4877 28.7866 21.1916 28.7866 20.8263V16.5652Z"
				style="fill:var(--metadata-icon-fill)" />
		</symbol>
		<symbol id="website-setting-icon" viewBox="0 0 30 27">
			<path
				d="M19.3936 3.54669C19.3936 3.13204 19.7297 2.7959 20.1443 2.7959C20.559 2.7959 20.8951 3.13204 20.8951 3.54669C20.8951 3.96134 20.559 4.29748 20.1443 4.29748C19.7297 4.29748 19.3936 3.96134 19.3936 3.54669Z"
				fill="var(--green)" />
			<path
				d="M22.3965 3.54669C22.3965 3.13204 22.7326 2.7959 23.1473 2.7959C23.5619 2.7959 23.8981 3.13204 23.8981 3.54669C23.8981 3.96134 23.5619 4.29748 23.1473 4.29748C22.7326 4.29748 22.3965 3.96134 22.3965 3.54669Z"
				fill="var(--green)" />
			<path
				d="M26.1492 2.7959C25.7346 2.7959 25.3984 3.13204 25.3984 3.54669C25.3984 3.96134 25.7346 4.29748 26.1492 4.29748C26.5639 4.29748 26.9 3.96134 26.9 3.54669C26.9 3.13204 26.5639 2.7959 26.1492 2.7959Z"
				fill="var(--green)" />
			<path fill-rule="evenodd" clip-rule="evenodd"
				d="M2.653 0.652344H27.6595C28.6221 0.652344 29.4024 1.43264 29.4024 2.39519V20.4301C29.4024 21.3926 28.6221 22.1729 27.6595 22.1729H23.7842L24.2854 21.3036L24.2874 21.3001C24.3113 21.2582 24.3338 21.2158 24.3551 21.1729H27.6595C28.0698 21.1729 28.4024 20.8404 28.4024 20.4301V6.64111H1.91016V20.4301C1.91016 20.8404 2.24274 21.1729 2.653 21.1729H5.95747C5.97873 21.2158 6.0013 21.2582 6.02518 21.3001L6.52831 22.1729H2.653C1.69045 22.1729 0.910156 21.3926 0.910156 20.4301V2.39519C0.910156 1.43264 1.69045 0.652344 2.653 0.652344ZM1.91016 5.64111H28.4024V2.39519C28.4024 1.98493 28.0698 1.65234 27.6595 1.65234H2.653C2.24274 1.65234 1.91016 1.98493 1.91016 2.39519V5.64111Z"
				fill="var(--green)" />
			<path fill-rule="evenodd" clip-rule="evenodd"
				d="M15.1592 20.5532C16.7725 20.5532 18.0801 19.2456 18.0801 17.6318C18.0801 16.0186 16.7725 14.7105 15.1592 14.7105C13.545 14.7105 12.2373 16.0186 12.2373 17.6318C12.2373 19.2456 13.545 20.5532 15.1592 20.5532ZM15.1592 19.5532C16.2198 19.5532 17.0801 18.6934 17.0801 17.6318C17.0801 16.5708 16.2198 15.7105 15.1592 15.7105C14.0977 15.7105 13.2373 16.5708 13.2373 17.6318C13.2373 18.6934 14.0977 19.5532 15.1592 19.5532Z"
				fill="var(--green)" />
			<path fill-rule="evenodd" clip-rule="evenodd"
				d="M13.7754 26.4131H16.541C16.7285 26.4111 16.9112 26.373 17.0811 26.3027C17.2569 26.23 17.419 26.1221 17.5567 25.9844C17.8252 25.7139 17.9776 25.3481 17.9795 24.9668V24.4873C18.5645 24.2456 19.1153 23.9287 19.6172 23.5444L20.0332 23.7842C20.1739 23.8638 20.3252 23.9189 20.4805 23.9482C20.6934 23.9888 20.9151 23.9814 21.128 23.9243C21.4971 23.8257 21.8125 23.5859 22.0069 23.2568L23.4209 20.8037C23.6094 20.4736 23.6602 20.0825 23.5635 19.7148C23.4659 19.3472 23.2285 19.0322 22.9014 18.8379L22.8858 18.8301L22.4463 18.5742C22.5176 17.9478 22.5176 17.3149 22.4463 16.6885L22.8692 16.4409C23.0918 16.3101 23.2725 16.124 23.3965 15.9028C23.4551 15.7988 23.501 15.687 23.5332 15.5698C23.5576 15.4761 23.5733 15.3809 23.5791 15.2856C23.584 15.1968 23.5821 15.1074 23.5713 15.019C23.5586 14.9146 23.5352 14.8115 23.5 14.7114C23.4707 14.6274 23.4336 14.5459 23.3887 14.4673L21.9746 12.0142C21.7803 11.6855 21.4639 11.4468 21.0948 11.3496C20.7246 11.2524 20.3321 11.3047 20.001 11.4951L19.586 11.7349C19.084 11.3511 18.5362 11.0313 17.9551 10.7837V10.2886C17.9541 9.90576 17.8008 9.54004 17.5293 9.27002C17.2588 9.00049 16.8916 8.84961 16.5088 8.8501H13.8076C13.4248 8.84961 13.0576 9.00049 12.7871 9.27002C12.5157 9.54004 12.3623 9.90576 12.3614 10.2886V10.7837C11.7803 11.0313 11.2325 11.3511 10.7305 11.7349L10.3155 11.4951C9.98441 11.3047 9.59183 11.2524 9.22171 11.3496C8.85257 11.4468 8.53616 11.6855 8.34183 12.0142L6.92776 14.4673C6.73733 14.8018 6.68558 15.1978 6.78323 15.5698C6.88284 15.936 7.12015 16.2485 7.4473 16.4409L7.87015 16.6885C7.79886 17.3149 7.79886 17.9478 7.87015 18.5742L7.43069 18.8301L7.41507 18.8379C7.08792 19.0322 6.85062 19.3472 6.75296 19.7148C6.70316 19.9043 6.69241 20.1001 6.71976 20.2905C6.74515 20.4692 6.80374 20.6436 6.89554 20.8037L8.3096 23.2568C8.50394 23.5859 8.81937 23.8257 9.18851 23.9243C9.42874 23.9888 9.67972 23.9897 9.91702 23.9307C10.044 23.8989 10.167 23.8501 10.2832 23.7842L10.6992 23.5444C10.834 23.648 10.9727 23.7461 11.1143 23.8394C11.5 24.0933 11.9092 24.3105 12.3369 24.4873V24.9668C12.3389 25.3481 12.4912 25.7139 12.7598 25.9844C13.0293 26.2549 13.3936 26.4087 13.7754 26.4131ZM13.8076 9.8501C13.7432 9.8501 13.6817 9.86328 13.625 9.88818C13.5762 9.90967 13.5313 9.94043 13.4922 9.979C13.4346 10.0366 13.3936 10.1079 13.375 10.1855C13.3662 10.2197 13.3614 10.2549 13.3614 10.291V11.4443L12.753 11.7036C12.5303 11.7988 12.3125 11.9063 12.1016 12.0254C11.836 12.1753 11.5811 12.3433 11.3389 12.5288L10.8086 12.9341L9.81741 12.3618C9.7139 12.3027 9.59183 12.2866 9.47659 12.3169C9.36234 12.3467 9.26566 12.4194 9.20413 12.52L7.79593 14.9634C7.77444 15.002 7.75882 15.043 7.74808 15.085C7.7305 15.1592 7.7305 15.2373 7.75003 15.3125C7.78128 15.4243 7.85452 15.5195 7.95511 15.5796L8.93851 16.1548L8.86429 16.8027C8.80081 17.3535 8.80081 17.9097 8.86429 18.4605L8.93851 19.1099L7.90628 19.7105C7.81351 19.7725 7.74808 19.8643 7.71976 19.9702C7.68948 20.0835 7.70511 20.2046 7.7637 20.3081L9.17288 22.7515C9.23441 22.8535 9.33206 22.9272 9.4473 22.958C9.50198 22.9727 9.55862 22.9771 9.61429 22.9712C9.67484 22.9644 9.73441 22.9458 9.78812 22.9155L10.7764 22.3452L11.3067 22.75C11.7403 23.0811 12.2149 23.3545 12.7188 23.563L13.3369 23.8184V24.9634C13.3379 25.0225 13.3506 25.0806 13.3731 25.1343C13.3955 25.188 13.4278 25.2373 13.4688 25.2793C13.5518 25.3628 13.6641 25.4106 13.7823 25.4131H16.5342C16.6524 25.4106 16.7647 25.3628 16.8477 25.2793C16.9053 25.2207 16.9463 25.1489 16.9659 25.0708C16.9746 25.0361 16.9795 25 16.9795 24.9634V23.8184L17.5977 23.563C17.8418 23.4619 18.0791 23.3452 18.3086 23.2144C18.4229 23.1494 18.5352 23.0806 18.6455 23.0083C18.7696 22.9268 18.8916 22.8403 19.0098 22.75L19.5401 22.3452L20.5284 22.9155C20.5996 22.9556 20.6807 22.9751 20.7608 22.9736C20.7969 22.9727 20.833 22.9678 20.8692 22.958C20.9844 22.9272 21.0821 22.8535 21.1436 22.7515L22.5528 20.3081C22.6114 20.2046 22.627 20.0835 22.5967 19.9702C22.5684 19.8643 22.503 19.7725 22.4102 19.7105L21.378 19.1099L21.4522 18.4605C21.4727 18.2842 21.4864 18.1074 21.4932 17.9302C21.5088 17.5542 21.4951 17.1772 21.4522 16.8027L21.378 16.1548L22.3614 15.5796C22.4619 15.5195 22.5352 15.4243 22.5664 15.3125C22.5821 15.2515 22.585 15.1885 22.5762 15.1274C22.5674 15.0703 22.5489 15.0146 22.5205 14.9634L21.1123 12.52C21.083 12.4727 21.0459 12.4312 21.003 12.3975C20.9551 12.3604 20.9004 12.3325 20.8399 12.3169C20.7246 12.2866 20.6026 12.3027 20.4991 12.3618L19.5078 12.9341L18.9776 12.5288C18.543 12.1958 18.0674 11.9185 17.5635 11.7036L16.9551 11.4443V10.291C16.9551 10.2661 16.9532 10.2417 16.9492 10.2173C16.9405 10.1655 16.9219 10.1162 16.8955 10.0713C16.876 10.0376 16.8526 10.0068 16.8242 9.979C16.7666 9.92188 16.6953 9.88233 16.6172 9.86328C16.5821 9.85449 16.5459 9.8501 16.5088 9.8501H13.8076Z"
				fill="var(--green)" />
		</symbol>
		<symbol id="overview-setting-icon" viewBox="0 0 17 17">
			<path fill-rule="evenodd" clip-rule="evenodd"
				d="M2.42383 0.761719H6.09961C6.92804 0.761719 7.59961 1.43329 7.59961 2.26172V14.6377C7.59961 15.4661 6.92804 16.1377 6.09961 16.1377H2.42383C1.5954 16.1377 0.923828 15.4661 0.923828 14.6377V2.26172C0.923828 1.43329 1.5954 0.761719 2.42383 0.761719ZM2.42383 1.76172C2.14769 1.76172 1.92383 1.98558 1.92383 2.26172V14.6377C1.92383 14.9138 2.14769 15.1377 2.42383 15.1377H6.09961C6.37575 15.1377 6.59961 14.9138 6.59961 14.6377V2.26172C6.59961 1.98558 6.37575 1.76172 6.09961 1.76172H2.42383Z"
				style="fill:var(--overview-icon-fill)" />
			<path fill-rule="evenodd" clip-rule="evenodd"
				d="M11.1777 0.761719H14.8535C15.6819 0.761719 16.3535 1.43329 16.3535 2.26172V5.94434C16.3535 6.77276 15.6819 7.44434 14.8535 7.44434H11.1777C10.3493 7.44434 9.67773 6.77276 9.67773 5.94434V2.26172C9.67773 1.43329 10.3493 0.761719 11.1777 0.761719ZM11.1777 1.76172C10.9016 1.76172 10.6777 1.98558 10.6777 2.26172V5.94434C10.6777 6.22048 10.9016 6.44434 11.1777 6.44434H14.8535C15.1297 6.44434 15.3535 6.22048 15.3535 5.94434V2.26172C15.3535 1.98558 15.1297 1.76172 14.8535 1.76172H11.1777Z"
				style="fill:var(--overview-icon-fill)" />
			<path fill-rule="evenodd" clip-rule="evenodd"
				d="M14.8535 9.45508H11.1777C10.3493 9.45508 9.67773 10.1267 9.67773 10.9551V14.6377C9.67773 15.4661 10.3493 16.1377 11.1777 16.1377H14.8535C15.6819 16.1377 16.3535 15.4661 16.3535 14.6377V10.9551C16.3535 10.1267 15.6819 9.45508 14.8535 9.45508ZM10.6777 10.9551C10.6777 10.6789 10.9016 10.4551 11.1777 10.4551H14.8535C15.1297 10.4551 15.3535 10.6789 15.3535 10.9551V14.6377C15.3535 14.9138 15.1297 15.1377 14.8535 15.1377H11.1777C10.9016 15.1377 10.6777 14.9138 10.6777 14.6377V10.9551Z"
				style="fill:var(--overview-icon-fill)" />
		</symbol>
		<symbol id="menu-setting-icon" viewBox="0 0 22 23">
			<path fill-rule="evenodd" clip-rule="evenodd"
				d="M14.2965 11.4415C14.2965 13.4608 12.6595 15.0978 10.6402 15.0978C8.62088 15.0978 6.98389 13.4608 6.98389 11.4415C6.98389 9.42215 8.62088 7.78516 10.6402 7.78516C12.6595 7.78516 14.2965 9.42215 14.2965 11.4415ZM13.2965 11.4415C13.2965 12.9085 12.1073 14.0978 10.6402 14.0978C9.17317 14.0978 7.98389 12.9085 7.98389 11.4415C7.98389 9.97443 9.17317 8.78516 10.6402 8.78516C12.1073 8.78516 13.2965 9.97443 13.2965 11.4415Z"
				style="fill:var(--setting-icon-fill)" />
			<path fill-rule="evenodd" clip-rule="evenodd"
				d="M21.2172 14.0475C21.0956 13.5874 20.7982 13.1934 20.3889 12.9505L20.3689 12.9405L19.8189 12.6205C19.9089 11.8363 19.9089 11.0445 19.8189 10.2604L20.3489 9.9504C20.7574 9.70944 21.0553 9.3182 21.1789 8.86037C21.3015 8.39451 21.2369 7.89919 20.9989 7.48035L19.2289 4.41028C18.9853 3.99896 18.5895 3.70011 18.1272 3.57846C17.6649 3.4568 17.1733 3.52212 16.7588 3.76027L16.2388 4.06027C15.6112 3.57997 14.9258 3.18019 14.1988 2.87025V2.25024C14.1969 1.77167 14.0053 1.31339 13.666 0.97593C13.3266 0.638471 12.8673 0.4494 12.3887 0.450198H8.84866C8.37222 0.453343 7.91621 0.643999 7.57932 0.980892C7.24242 1.31779 7.05177 1.77381 7.04862 2.25024V2.85025C6.31456 3.15232 5.62493 3.55265 4.99858 4.04027L4.48857 3.75027C4.07389 3.51291 3.58255 3.44803 3.12048 3.56963C2.6584 3.69123 2.26264 3.98955 2.01852 4.40028L0.248478 7.47035C0.0105252 7.88919 -0.0540805 8.38451 0.0684739 8.85038C0.128323 9.07773 0.232442 9.29104 0.374874 9.47809C0.517305 9.66513 0.695238 9.82224 0.898492 9.9404L1.4185 10.2404C1.31851 11.0273 1.31851 11.8236 1.4185 12.6105L0.888491 12.9205C0.478946 13.1657 0.181642 13.5614 0.060162 14.023C-0.0613184 14.4847 0.00268257 14.9755 0.238478 15.3905L2.00852 18.4506C2.25043 18.8637 2.64623 19.1641 3.10923 19.286C3.57223 19.4078 4.06463 19.3411 4.47857 19.1006L4.98858 18.8106C5.63154 19.303 6.33368 19.7129 7.07862 20.0306V20.6306C7.08742 21.107 7.28124 21.5613 7.61908 21.8972C7.95693 22.2332 8.41224 22.4245 8.88866 22.4307H12.4287C12.9062 22.4254 13.3625 22.2327 13.6993 21.8941C14.036 21.5555 14.2262 21.0982 14.2288 20.6206V20.0206C14.9606 19.7181 15.6497 19.3214 16.2788 18.8406L16.7988 19.1406C17.2149 19.3763 17.7069 19.4392 18.1688 19.3158C18.6308 19.1923 19.0259 18.8924 19.2689 18.4806L21.0389 15.4105C21.2747 14.9971 21.3387 14.5076 21.2172 14.0475ZM18.7509 13.156L19.8934 13.8207L19.9031 13.8256C20.0741 13.9355 20.1982 14.1057 20.2503 14.303C20.3048 14.509 20.2764 14.7281 20.1713 14.9134L20.1703 14.915L18.4056 17.9758C18.2957 18.1601 18.1181 18.2942 17.9107 18.3497C17.703 18.4052 17.4819 18.3773 17.2945 18.2721L16.2012 17.6413L15.6715 18.0461C15.1116 18.4741 14.4981 18.8272 13.8468 19.0964L13.2288 19.3519V20.6173C13.2271 20.8317 13.1414 21.0369 12.9902 21.189C12.8395 21.3405 12.6357 21.4272 12.4221 21.4307H8.89645C8.68166 21.4266 8.47666 21.3397 8.32422 21.1882C8.17235 21.0371 8.08447 20.8335 8.07862 20.6196V19.37L7.47094 19.1108C6.8029 18.8259 6.17323 18.4583 5.59661 18.0167L5.07042 17.6137L3.98424 18.2313L3.97613 18.236C3.79099 18.3436 3.57079 18.3734 3.36372 18.3189C3.15736 18.2646 2.98085 18.131 2.87256 17.9471L2.87146 17.9453L1.10641 14.8938C1.00094 14.7065 0.97251 14.4855 1.02724 14.2775C1.08188 14.0699 1.21511 13.8917 1.39868 13.7805L2.49384 13.14L2.41052 12.4844C2.32117 11.7812 2.32117 11.0696 2.41052 10.3665L2.49438 9.70661L1.40108 9.07587L1.39988 9.07517C1.31088 9.02322 1.23293 8.95428 1.17047 8.87226C1.10778 8.78993 1.06194 8.69604 1.03557 8.59596C0.979692 8.38356 1.00882 8.15778 1.11669 7.96655L2.88087 4.90665C2.99115 4.72381 3.16836 4.59107 3.37497 4.5367C3.5833 4.48188 3.80482 4.51113 3.9918 4.61815L5.08539 5.24L5.61288 4.82935C6.16782 4.39732 6.77882 4.04264 7.42917 3.77501L8.04862 3.5201V2.25417C8.05072 2.04163 8.13608 1.83834 8.28642 1.688C8.43678 1.53764 8.64007 1.45229 8.85262 1.4502L12.3887 1.4502L12.3904 1.4502C12.6041 1.44984 12.8093 1.53428 12.9608 1.685C13.112 1.83533 13.1975 2.03937 13.1988 2.25253V3.53103L13.8066 3.79015C14.4568 4.06734 15.0698 4.42488 15.6311 4.85444L16.1608 5.25977L17.2575 4.62706C17.4439 4.52013 17.6649 4.49084 17.8727 4.54553C18.0792 4.59987 18.2562 4.73277 18.366 4.91577L20.1294 7.97432L20.1307 7.97655C20.238 8.16682 20.2674 8.3913 20.2127 8.60277C20.1568 8.80653 20.0239 8.98063 19.8421 9.08833L19.8408 9.0891L18.751 9.7265L18.8254 10.3744C18.9067 11.0828 18.9067 11.7981 18.8254 12.5064L18.7509 13.156Z"
				style="fill:var(--setting-icon-fill)" />
		</symbol>
		<symbol id="menu-help-icon" viewBox="0 0 21 21">
			<path
				d="M11.2843 4.41412L11.0762 4.37912C10.8672 4.3587 10.6571 4.35269 10.4473 4.36111C9.50015 4.41605 8.60882 4.82715 7.95222 5.51193C7.29562 6.19672 6.92231 7.10452 6.90724 8.05313V8.21011C6.90413 8.28146 6.91553 8.35269 6.94069 8.41953C6.96585 8.48633 7.00428 8.54736 7.05366 8.59894C7.10304 8.65054 7.16237 8.69159 7.22804 8.7196C7.29371 8.74765 7.36434 8.76212 7.43574 8.76212C7.50715 8.76212 7.57784 8.74765 7.64351 8.7196C7.70917 8.69159 7.7685 8.65054 7.81788 8.59894C7.86726 8.54736 7.9057 8.48633 7.93086 8.41953C7.95602 8.35269 7.96735 8.28146 7.96424 8.21011V8.05411C7.97365 7.37723 8.23882 6.72894 8.70643 6.23944C9.17405 5.74994 9.80948 5.45544 10.4852 5.41513H10.6003C10.7675 5.41528 10.9345 5.42599 11.1003 5.44711C11.727 5.55273 12.2952 5.87943 12.7017 6.36798C13.1083 6.85654 13.3263 7.47461 13.3162 8.11011C13.2899 8.59964 13.1258 9.07178 12.8427 9.47198C12.5596 9.87222 12.1691 10.1843 11.7163 10.3721C11.3585 10.5047 10.9907 10.608 10.6163 10.6811C10.5086 10.6994 10.4099 10.7524 10.3353 10.8321C10.2526 10.9199 10.189 11.0239 10.1486 11.1375C10.1081 11.2511 10.0917 11.3718 10.1003 11.4921V13.3671C10.0972 13.4384 10.1085 13.5097 10.1337 13.5765C10.1588 13.6433 10.1973 13.7044 10.2467 13.756C10.296 13.8075 10.3554 13.8486 10.421 13.8766C10.4867 13.9047 10.5573 13.9191 10.6287 13.9191C10.7001 13.9191 10.7708 13.9047 10.8365 13.8766C10.9022 13.8486 10.9615 13.8075 11.0109 13.756C11.0603 13.7044 11.0987 13.6433 11.1239 13.5765C11.149 13.5097 11.1603 13.4384 11.1572 13.3671V11.6481L11.3713 11.5911C11.6111 11.528 11.8474 11.4522 12.0792 11.3641C12.7275 11.1031 13.2875 10.6621 13.6933 10.0931C14.0991 9.52417 14.3336 8.85101 14.3693 8.15311C14.3867 7.26215 14.084 6.39444 13.5164 5.70752C12.9487 5.02057 12.1536 4.55991 11.2753 4.40912L11.2843 4.41412Z"
				style="fill:var(--help-icon-fill)" />
			<path
				d="M10.2142 15.1219C10.1091 15.2328 10.051 15.3801 10.0522 15.5329C10.0491 15.6101 10.0623 15.6872 10.0909 15.759C10.1195 15.8309 10.1629 15.8959 10.2182 15.9499C10.2736 16.0073 10.34 16.053 10.4133 16.0844C10.4866 16.1158 10.5654 16.1323 10.6452 16.1329C10.721 16.1317 10.796 16.1164 10.8662 16.0879C10.9385 16.0583 11.0036 16.0136 11.0572 15.9569C11.109 15.901 11.151 15.8368 11.1812 15.7669C11.2142 15.6971 11.2316 15.621 11.2322 15.5439C11.2322 15.4661 11.2165 15.389 11.1861 15.3174C11.1557 15.2458 11.1112 15.181 11.0552 15.1269L11.0462 15.1219C10.932 15.0171 10.7827 14.959 10.6277 14.959C10.4727 14.959 10.3234 15.0171 10.2092 15.1219H10.2142Z"
				style="fill:var(--help-icon-fill)" />
			<path fill-rule="evenodd" clip-rule="evenodd"
				d="M20.4336 10.2451C20.4336 15.6547 16.0483 20.04 10.6387 20.04C5.22909 20.04 0.84375 15.6547 0.84375 10.2451C0.84375 4.83554 5.22909 0.450195 10.6387 0.450195C16.0483 0.450195 20.4336 4.83554 20.4336 10.2451ZM19.4336 10.2451C19.4336 15.1024 15.496 19.04 10.6387 19.04C5.78137 19.04 1.84375 15.1024 1.84375 10.2451C1.84375 5.38782 5.78137 1.4502 10.6387 1.4502C15.496 1.4502 19.4336 5.38782 19.4336 10.2451Z"
				style="fill:var(--help-icon-fill)" />
		</symbol>
		<symbol width="8" height="14" id="chevron-right-icon" viewBox="0 0 8 14" fill="none">
			<path d="M7 13L1 7L7 1" stroke-linecap="round" stroke-linejoin="round" />
		</symbol>
		<symbol id="cleanup-settings-icon" viewBox="0 0 23 19" fill="none">
			<path
				d="M15.0949 1.69197C14.7066 1.69197 14.3919 2.0067 14.3919 2.39495C14.3919 2.78319 14.7066 3.09793 15.0949 3.09793C15.4831 3.09793 15.7978 2.78319 15.7978 2.39495C15.7978 2.0067 15.4831 1.69197 15.0949 1.69197Z"
				style="fill:var(--cleanup-settings-icon-fill)" />
			<path
				d="M17.3066 1.69197C16.9184 1.69197 16.6036 2.0067 16.6036 2.39495C16.6036 2.78319 16.9184 3.09793 17.3066 3.09793C17.6948 3.09793 18.0096 2.78319 18.0096 2.39495C18.0096 2.0067 17.6948 1.69197 17.3066 1.69197Z"
				style="fill:var(--cleanup-settings-icon-fill)" />
			<path
				d="M19.5183 1.69197C19.1301 1.69197 18.8154 2.0067 18.8154 2.39495C18.8154 2.78319 19.1301 3.09793 19.5183 3.09793C19.9066 3.09793 20.2213 2.78319 20.2213 2.39495C20.2213 2.0067 19.9066 1.69197 19.5183 1.69197Z"
				style="fill:var(--cleanup-settings-icon-fill)" />
			<path fill-rule="evenodd" clip-rule="evenodd"
				d="M2.20988 0.114258C1.41925 0.114258 0.77832 0.755192 0.77832 1.54582V14.8332C0.77832 15.6239 1.41925 16.2648 2.20988 16.2648H6.47661C6.51826 16.2648 6.55804 16.2475 6.58641 16.217C6.61479 16.1865 6.62921 16.1456 6.62623 16.1041L6.57336 15.3675C6.56772 15.2891 6.50242 15.2283 6.42374 15.2283H2.20988C1.99171 15.2283 1.81485 15.0514 1.81485 14.8332V4.82588H21.0271V14.8332C21.0271 15.0514 20.8503 15.2283 20.6321 15.2283H16.3631C16.2844 15.2283 16.219 15.2891 16.2135 15.3677L16.1612 16.1042C16.1583 16.1457 16.1727 16.1866 16.2011 16.217C16.2294 16.2475 16.2692 16.2648 16.3108 16.2648H20.6321C21.4227 16.2648 22.0637 15.6239 22.0637 14.8332V1.54582C22.0637 0.75519 21.4227 0.114258 20.6321 0.114258H2.20988ZM1.81485 1.54582C1.81485 1.32765 1.99171 1.15079 2.20988 1.15079H20.6321C20.8503 1.15079 21.0271 1.32765 21.0271 1.54582V3.78935H1.81485V1.54582Z"
				style="fill:var(--cleanup-settings-icon-fill)" />
			<path
				d="M10.1364 10.1843C9.85014 10.1843 9.6181 10.4164 9.6181 10.7026V16.0229C9.6181 16.3091 9.85014 16.5412 10.1364 16.5412C10.4226 16.5412 10.6546 16.3091 10.6546 16.0229V10.7026C10.6546 10.4164 10.4226 10.1843 10.1364 10.1843Z"
				style="fill:var(--cleanup-settings-icon-fill)" />
			<path
				d="M12.7063 10.1843C12.4201 10.1843 12.188 10.4164 12.188 10.7026V16.0229C12.188 16.3091 12.4201 16.5412 12.7063 16.5412C12.9925 16.5412 13.2246 16.3091 13.2246 16.0229V10.7026C13.2246 10.4164 12.9925 10.1843 12.7063 10.1843Z"
				style="fill:var(--cleanup-settings-icon-fill)" />
			<path fill-rule="evenodd" clip-rule="evenodd"
				d="M10.0116 6.25032C9.78848 6.25032 9.59044 6.39307 9.51989 6.6047L9.16785 7.66082H6.44581C6.15958 7.66082 5.92755 7.89285 5.92755 8.17908C5.92755 8.46531 6.15958 8.69735 6.44581 8.69735H7.06938L7.7745 18.5198C7.79397 18.7909 8.01961 19.0009 8.29144 19.0009H14.5624C14.8344 19.0009 15.0601 18.7907 15.0794 18.5193L15.7763 8.69735H16.3995C16.6857 8.69735 16.9177 8.46531 16.9177 8.17908C16.9177 7.89285 16.6857 7.66082 16.3995 7.66082H13.6766L13.3246 6.6047C13.254 6.39307 13.056 6.25032 12.8329 6.25032H10.0116ZM10.2604 7.66082L10.3851 7.28685H12.4593L12.584 7.66082H10.2604ZM8.77383 17.9644L8.10858 8.69735H14.7372L14.0796 17.9644H8.77383Z"
				style="fill:var(--cleanup-settings-icon-fill)" />
		</symbol>
		<symbol id="website-settings-icon" width="23" height="20" viewBox="0 0 23 20" fill="none">
			<path
				d="M15.0721 2.35352C14.7712 2.35352 14.5273 2.59741 14.5273 2.89825C14.5273 3.1991 14.7712 3.44299 15.0721 3.44299C15.3729 3.44299 15.6168 3.1991 15.6168 2.89825C15.6168 2.59741 15.3729 2.35352 15.0721 2.35352Z"
				style="fill:var(--website-settings-icon-fill)" />
			<path
				d="M16.7051 2.89825C16.7051 2.59741 16.949 2.35352 17.2498 2.35352C17.5507 2.35352 17.7946 2.59741 17.7946 2.89825C17.7946 3.1991 17.5507 3.44299 17.2498 3.44299C16.949 3.44299 16.7051 3.1991 16.7051 2.89825Z"
				style="fill:var(--website-settings-icon-fill)" />
			<path
				d="M18.8848 2.89825C18.8848 2.59741 19.1287 2.35352 19.4295 2.35352C19.7304 2.35352 19.9742 2.59741 19.9742 2.89825C19.9742 3.1991 19.7304 3.44299 19.4295 3.44299C19.1287 3.44299 18.8848 3.1991 18.8848 2.89825Z"
				style="fill:var(--website-settings-icon-fill)" />
			<path fill-rule="evenodd" clip-rule="evenodd"
				d="M20.5866 0.524414H2.31842C1.50291 0.524414 0.841797 1.18552 0.841797 2.00104V15.211C0.841797 16.0265 1.50291 16.6876 2.31842 16.6876H5.00776L4.55394 15.903C4.51416 15.833 4.47871 15.761 4.44766 15.6876H2.31842C2.05519 15.6876 1.8418 15.4742 1.8418 15.211V5.28125H21.0633V15.211C21.0633 15.4742 20.8499 15.6876 20.5866 15.6876H18.4629C18.4304 15.7656 18.393 15.8419 18.3507 15.9161L18.3484 15.9201L17.9059 16.6876H20.5866C21.4022 16.6876 22.0633 16.0265 22.0633 15.211V2.00104C22.0633 1.18552 21.4022 0.524414 20.5866 0.524414ZM20.5866 1.52441H2.31842C2.05519 1.52441 1.8418 1.73779 1.8418 2.00104V4.28125H21.0633V2.00104C21.0633 1.73779 20.8499 1.52441 20.5866 1.52441Z"
				style="fill:var(--website-settings-icon-fill)" />
			<path fill-rule="evenodd" clip-rule="evenodd"
				d="M11.4537 15.2384C12.6243 15.2384 13.5734 14.2894 13.5734 13.1187C13.5734 11.948 12.6243 10.999 11.4537 10.999C10.283 10.999 9.33398 11.948 9.33398 13.1187C9.33398 14.2894 10.283 15.2384 11.4537 15.2384ZM11.4537 14.2384C12.0721 14.2384 12.5734 13.7371 12.5734 13.1187C12.5734 12.5003 12.0721 11.999 11.4537 11.999C10.8353 11.999 10.334 12.5003 10.334 13.1187C10.334 13.7371 10.8353 14.2384 11.4537 14.2384Z"
				style="fill:var(--website-settings-icon-fill)" />
			<path fill-rule="evenodd" clip-rule="evenodd"
				d="M12.4903 6.74707H10.414C10.1378 6.7489 9.87345 6.85944 9.67814 7.05475C9.48283 7.25003 9.3723 7.5144 9.37048 7.79062V8.13846C8.94492 8.31357 8.54512 8.54565 8.18201 8.82834L7.88634 8.66022C7.64594 8.52261 7.3611 8.48502 7.09322 8.55551C6.82534 8.62601 6.5959 8.79895 6.45437 9.03705L5.42823 10.8169C5.29028 11.0597 5.25283 11.3468 5.32388 11.6169C5.35857 11.7487 5.41893 11.8724 5.5015 11.9808C5.58408 12.0893 5.68723 12.1803 5.80506 12.2488L6.10653 12.4228C6.04856 12.8789 6.04856 13.3406 6.10653 13.7968L5.79926 13.9765C5.56184 14.1186 5.38948 14.3481 5.31906 14.6157C5.24863 14.8833 5.28573 15.1678 5.42243 15.4084L6.44858 17.1824C6.58882 17.422 6.81828 17.5961 7.0867 17.6667C7.35511 17.7374 7.64057 17.6987 7.88054 17.5593L8.17621 17.3911C8.54896 17.6766 8.95601 17.9142 9.38787 18.0984V18.4463C9.39297 18.7224 9.50534 18.9858 9.70119 19.1806C9.89705 19.3753 10.161 19.4863 10.4372 19.4898H12.4671C12.7433 19.4863 13.0072 19.3753 13.2031 19.1806C13.399 18.9858 13.5113 18.7224 13.5164 18.4463V18.0984C13.9483 17.9142 14.3553 17.6766 14.7281 17.3911L15.0238 17.5593C15.2637 17.6987 15.5492 17.7374 15.8176 17.6667C16.086 17.5961 16.3155 17.422 16.4557 17.1824L17.4819 15.4084C17.6186 15.1678 17.6557 14.8833 17.5852 14.6157C17.5148 14.3481 17.3425 14.1186 17.105 13.9765L16.7978 13.7968C16.8557 13.3406 16.8557 12.8789 16.7978 12.4228L17.0992 12.2488C17.2171 12.1803 17.3202 12.0893 17.4028 11.9808C17.4854 11.8724 17.5457 11.7487 17.5804 11.6169C17.6515 11.3468 17.614 11.0597 17.4761 10.8169L16.4499 9.03705C16.3084 8.79895 16.079 8.62601 15.8111 8.55551C15.5432 8.48502 15.2584 8.52261 15.018 8.66022L14.7223 8.82834C14.3592 8.54565 13.9594 8.31357 13.5338 8.13846V7.79062C13.532 7.5144 13.4215 7.25003 13.2262 7.05475C13.0308 6.85944 12.7665 6.7489 12.4903 6.74707ZM12.4802 18.4839C12.4729 18.4874 12.4649 18.4894 12.4567 18.4898H10.4476C10.4394 18.4894 10.4314 18.4874 10.4241 18.4839C10.4176 18.4809 10.4115 18.4767 10.4063 18.4715C10.3955 18.4608 10.389 18.4465 10.3879 18.4315V17.4378L9.78019 17.1786C9.42522 17.0272 9.09064 16.8319 8.78424 16.5972L8.25805 16.1942L7.38624 16.69L7.3781 16.6947C7.36694 16.7011 7.35367 16.7029 7.34119 16.6997C7.33213 16.6973 7.32403 16.6924 7.31777 16.6856C7.31562 16.6833 7.31369 16.6807 7.31202 16.678L6.29118 14.9131C6.28914 14.9093 6.28754 14.9053 6.28639 14.9012C6.2855 14.8981 6.28488 14.8948 6.28453 14.8916C6.28375 14.8845 6.28427 14.8772 6.28613 14.8701C6.2899 14.8558 6.2989 14.8435 6.31129 14.8355L7.18186 14.3263L7.09855 13.6707C7.05122 13.2982 7.05122 12.9213 7.09855 12.5488L7.1824 11.889L6.30765 11.3843L6.29093 11.3623C6.28651 11.3454 6.28872 11.3274 6.29708 11.312L7.31531 9.5459C7.32285 9.53439 7.33438 9.52609 7.34771 9.52258C7.35517 9.52063 7.36288 9.52023 7.37037 9.52139C7.37706 9.52243 7.38358 9.52469 7.38957 9.52811L8.26882 10.0281L8.79631 9.61743C9.08802 9.39032 9.40918 9.20389 9.75103 9.06323L10.3705 8.80832V7.79602C10.3709 7.78317 10.3761 7.77094 10.3852 7.76184C10.3944 7.75272 10.4066 7.74747 10.4194 7.74707H12.4849C12.4977 7.74747 12.5099 7.75272 12.5191 7.76184C12.5282 7.77094 12.5334 7.78317 12.5338 7.79602V8.80832L13.1533 9.06323C13.4951 9.20389 13.8163 9.39032 14.108 9.61743L14.6355 10.0281L15.5147 9.52811C15.5274 9.52084 15.5425 9.51886 15.5566 9.52258C15.5699 9.52609 15.5815 9.53439 15.589 9.5459L16.6072 11.312C16.6121 11.321 16.6149 11.3309 16.6155 11.3409C16.6159 11.3481 16.6152 11.3553 16.6134 11.3623L16.5966 11.3843L15.7219 11.889L15.8057 12.5488C15.8531 12.9213 15.8531 13.2982 15.8057 13.6707L15.7224 14.3263L16.593 14.8355C16.6054 14.8435 16.6144 14.8558 16.6182 14.8701C16.62 14.8772 16.6205 14.8845 16.6198 14.8916C16.619 14.8991 16.6167 14.9064 16.6131 14.9131L15.5923 16.678C15.5857 16.6887 15.5753 16.6965 15.5631 16.6997C15.5506 16.7029 15.5374 16.7011 15.5262 16.6947L15.5181 16.69L14.6462 16.1942L14.1201 16.5972C13.8137 16.8319 13.4791 17.0272 13.1241 17.1786L12.5164 17.4378V18.4315C12.5153 18.4465 12.5087 18.4608 12.498 18.4715C12.4946 18.4749 12.4908 18.4778 12.4868 18.4803C12.4847 18.4817 12.4825 18.4828 12.4802 18.4839Z"
				style="fill:var(--website-settings-icon-fill)" />
		</symbol>
		<symbol id="appearance-settings-icon" viewBox="0 0 19 19" fill="none">
			<path fill-rule="evenodd" clip-rule="evenodd"
				d="M6.01575 8.30861C6.01575 9.32345 5.19305 10.1461 4.17822 10.1461C3.16337 10.1461 2.34068 9.32345 2.34068 8.30861C2.34068 7.29377 3.16337 6.47108 4.17822 6.47108C5.19305 6.47108 6.01575 7.29377 6.01575 8.30861ZM4.17822 9.15789C4.64726 9.15789 5.02749 8.77766 5.02749 8.30861C5.02749 7.83957 4.64726 7.45934 4.17822 7.45934C3.70917 7.45934 3.32894 7.83957 3.32894 8.30861C3.32894 8.77766 3.70917 9.15789 4.17822 9.15789Z"
				style="fill:var(--appearance-icon-fill)" />
			<path fill-rule="evenodd" clip-rule="evenodd"
				d="M7.13525 6.50872C8.15009 6.50872 8.97278 5.68603 8.97278 4.67119C8.97278 3.65635 8.15009 2.83366 7.13525 2.83366C6.12041 2.83366 5.29772 3.65635 5.29772 4.67119C5.29772 5.68603 6.12041 6.50872 7.13525 6.50872ZM7.98453 4.67119C7.98453 5.14024 7.60429 5.52047 7.13525 5.52047C6.6662 5.52047 6.28597 5.14024 6.28597 4.67119C6.28597 4.20215 6.6662 3.82191 7.13525 3.82191C7.60429 3.82191 7.98453 4.20215 7.98453 4.67119Z"
				style="fill:var(--appearance-icon-fill)" />
			<path fill-rule="evenodd" clip-rule="evenodd"
				d="M13.8272 4.98388C13.8272 5.99872 13.0045 6.82141 11.9896 6.82141C10.9748 6.82141 10.1521 5.99872 10.1521 4.98388C10.1521 3.96904 10.9748 3.14635 11.9896 3.14635C13.0045 3.14635 13.8272 3.96904 13.8272 4.98388ZM11.9896 5.83316C12.4587 5.83316 12.8389 5.45293 12.8389 4.98388C12.8389 4.51484 12.4587 4.1346 11.9896 4.1346C11.5206 4.1346 11.1404 4.51484 11.1404 4.98388C11.1404 5.45293 11.5206 5.83316 11.9896 5.83316Z"
				style="fill:var(--appearance-icon-fill)" />
			<path fill-rule="evenodd" clip-rule="evenodd"
				d="M14.6629 11.1817C15.6778 11.1817 16.5005 10.359 16.5005 9.34416C16.5005 8.32932 15.6778 7.50663 14.6629 7.50663C13.6481 7.50663 12.8254 8.32932 12.8254 9.34416C12.8254 10.359 13.6481 11.1817 14.6629 11.1817ZM15.5122 9.34416C15.5122 9.8132 15.132 10.1934 14.6629 10.1934C14.1939 10.1934 13.8137 9.8132 13.8137 9.34416C13.8137 8.87511 14.1939 8.49488 14.6629 8.49488C15.132 8.49488 15.5122 8.87511 15.5122 9.34416Z"
				style="fill:var(--appearance-icon-fill)" />
			<path fill-rule="evenodd" clip-rule="evenodd"
				d="M0.205753 7.53958C-0.0362549 8.76369 0.134405 10.5496 1.33976 11.7552C2.33043 12.746 4.31386 13.7606 6.19603 13.3793C7.63242 13.0883 8.76335 13.7016 8.76335 14.9791C8.76335 15.4578 8.50664 15.7799 8.25568 16.0948C7.89623 16.5458 7.54859 16.982 7.98425 17.8422C8.3738 18.6114 9.70799 18.7869 10.7792 18.6114C15.4789 17.8416 18.7296 14.053 18.7296 9.36463C18.7296 4.20023 14.5431 0.0136719 9.37869 0.0136719C4.83883 0.0136719 1.05463 3.24887 0.205753 7.53958ZM1.17521 7.73138C0.971959 8.75967 1.14531 10.1629 2.03864 11.0564C2.43217 11.45 3.05731 11.8774 3.78929 12.1598C4.51955 12.4415 5.29055 12.5544 5.9998 12.4107C6.88318 12.2318 7.79379 12.305 8.52581 12.743C9.30065 13.2067 9.7516 14.0099 9.7516 14.9791C9.7516 15.8091 9.30052 16.3715 9.06012 16.6712L9.02851 16.7107C8.9331 16.8305 8.87513 16.9045 8.82962 16.9747C8.78817 17.0386 8.77634 17.0713 8.77257 17.0846C8.77054 17.0918 8.7671 17.1039 8.77149 17.136C8.77669 17.1741 8.79562 17.257 8.86589 17.3957C8.86614 17.3962 8.86932 17.4026 8.88103 17.4146C8.89358 17.4275 8.91656 17.4476 8.95536 17.4716C9.03624 17.5218 9.16443 17.576 9.34649 17.6177C9.71564 17.7021 10.1855 17.7072 10.6195 17.6361C14.8511 16.943 17.7414 13.5592 17.7414 9.36463C17.7414 4.74603 13.9973 1.00192 9.37869 1.00192C5.3198 1.00192 1.93433 3.89467 1.17521 7.73138Z"
				style="fill:var(--appearance-icon-fill)" />
		</symbol>
		<symbol id="appearance-light-mode" viewBox="0 0 180 115" fill="none">
			<rect x="0.5" y="0.5" width="179" height="114" rx="3.5" fill="#EBEBEB" stroke="#D4D4D4"
				style="border:2px solid black" />
			<path d="M30.5 34C30.5 32.067 32.067 30.5 34 30.5H179.5V111C179.5 112.933 177.933 114.5 176 114.5H30.5V34Z"
				fill="white" stroke="#D4D4D4" />
			<path
				d="M62.0547 71H58.3844L56.5703 65.8672H48.6391L46.8953 71H43.2391L50.7906 50.8344H54.5594L62.0547 71ZM55.6844 63.1391L52.8859 55.0953C52.8016 54.8328 52.7125 54.4109 52.6187 53.8297H52.5625C52.4781 54.3641 52.3844 54.7859 52.2812 55.0953L49.5109 63.1391H55.6844ZM75.5266 71H72.3625V68.75H72.3063C71.3125 70.475 69.8547 71.3375 67.9328 71.3375C66.5172 71.3375 65.4063 70.9531 64.6 70.1844C63.8031 69.4156 63.4047 68.3984 63.4047 67.1328C63.4047 64.4141 64.9703 62.8297 68.1016 62.3797L72.3766 61.775C72.3766 59.7219 71.4016 58.6953 69.4516 58.6953C67.7359 58.6953 66.1891 59.2859 64.8109 60.4672V57.6125C66.3297 56.7125 68.0828 56.2625 70.0703 56.2625C73.7078 56.2625 75.5266 58.0531 75.5266 61.6344V71ZM72.3766 63.9266L69.3531 64.3484C68.4156 64.4703 67.7078 64.7 67.2297 65.0375C66.7609 65.3656 66.5266 65.9469 66.5266 66.7813C66.5266 67.3906 66.7422 67.8922 67.1734 68.2859C67.6141 68.6703 68.2 68.8625 68.9313 68.8625C69.925 68.8625 70.7453 68.5156 71.3922 67.8219C72.0484 67.1188 72.3766 66.2375 72.3766 65.1781V63.9266Z"
				fill="#373C42" />
		</symbol>
		<symbol id="appearance-dark-mode" viewBox="0 0 180 115" fill="none">
			<rect width="180" height="115" rx="4" fill="#474A4C" />
			<path d="M34 30.5H179.5V111C179.5 112.933 177.933 114.5 176 114.5H30.5V34C30.5 32.067 32.067 30.5 34 30.5Z"
				fill="#212325" stroke="#999999" />
			<path
				d="M62.0547 71H58.3844L56.5703 65.8672H48.6391L46.8953 71H43.2391L50.7906 50.8344H54.5594L62.0547 71ZM55.6844 63.1391L52.8859 55.0953C52.8016 54.8328 52.7125 54.4109 52.6187 53.8297H52.5625C52.4781 54.3641 52.3844 54.7859 52.2812 55.0953L49.5109 63.1391H55.6844ZM75.5266 71H72.3625V68.75H72.3063C71.3125 70.475 69.8547 71.3375 67.9328 71.3375C66.5172 71.3375 65.4063 70.9531 64.6 70.1844C63.8031 69.4156 63.4047 68.3984 63.4047 67.1328C63.4047 64.4141 64.9703 62.8297 68.1016 62.3797L72.3766 61.775C72.3766 59.7219 71.4016 58.6953 69.4516 58.6953C67.7359 58.6953 66.1891 59.2859 64.8109 60.4672V57.6125C66.3297 56.7125 68.0828 56.2625 70.0703 56.2625C73.7078 56.2625 75.5266 58.0531 75.5266 61.6344V71ZM72.3766 63.9266L69.3531 64.3484C68.4156 64.4703 67.7078 64.7 67.2297 65.0375C66.7609 65.3656 66.5266 65.9469 66.5266 66.7813C66.5266 67.3906 66.7422 67.8922 67.1734 68.2859C67.6141 68.6703 68.2 68.8625 68.9313 68.8625C69.925 68.8625 70.7453 68.5156 71.3922 67.8219C72.0484 67.1188 72.3766 66.2375 72.3766 65.1781V63.9266Z"
				fill="#E8ECEE" />
			<rect x="0.5" y="0.5" width="179" height="114" rx="3.5" stroke="#999999" />
		</symbol>
		<symbol id="hamburger-menu-icon" viewBox="0 0 15 12">
			<path
				d="M0 1.26172C0 0.985576 0.223858 0.761719 0.5 0.761719H14.5C14.7761 0.761719 15 0.985576 15 1.26172C15 1.53786 14.7761 1.76172 14.5 1.76172H0.5C0.223858 1.76172 0 1.53786 0 1.26172Z"
				fill="var(--green)" />
			<path
				d="M0 6.26172C0 5.98558 0.223858 5.76172 0.5 5.76172H14.5C14.7761 5.76172 15 5.98558 15 6.26172C15 6.53786 14.7761 6.76172 14.5 6.76172H0.5C0.223858 6.76172 0 6.53786 0 6.26172Z"
				fill="var(--green)" />
			<path
				d="M0.5 10.7617C0.223858 10.7617 0 10.9856 0 11.2617C0 11.5379 0.223858 11.7617 0.5 11.7617H14.5C14.7761 11.7617 15 11.5379 15 11.2617C15 10.9856 14.7761 10.7617 14.5 10.7617H0.5Z"
				fill="var(--green)" />
		</symbol>
		<symbol id="menu-close-icon" viewBox="0 0 13 13">
			<path
				d="M0.853553 0.908165C0.658291 0.712903 0.341709 0.712903 0.146447 0.908165C-0.0488155 1.10343 -0.0488155 1.42001 0.146447 1.61527L5.29289 6.76172L0.146447 11.9082C-0.0488155 12.1034 -0.0488155 12.42 0.146447 12.6153C0.341709 12.8105 0.658291 12.8105 0.853553 12.6153L6 7.46883L11.1464 12.6153C11.3417 12.8105 11.6583 12.8105 11.8536 12.6153C12.0488 12.42 12.0488 12.1034 11.8536 11.9082L6.70711 6.76172L11.8536 1.61527C12.0488 1.42001 12.0488 1.10343 11.8536 0.908166C11.6583 0.712904 11.3417 0.712904 11.1464 0.908166L6 6.05461L0.853553 0.908165Z"
				fill="var(--green)" />
		</symbol>
		<symbol id="website-setting-external-icon" viewBox="0 0 11 11">
			<path
				d="M9.94955 0.696773H6.51342C6.33503 0.689874 6.15765 0.757066 6.02864 0.880514C5.89879 1.00476 5.82365 1.18048 5.82365 1.36026C5.82365 1.54003 5.89878 1.71579 6.02864 1.84004C6.15765 1.96349 6.33503 2.03068 6.51342 2.02378H8.3482L5.08971 5.28225C4.89052 5.46483 4.82124 5.76728 4.92158 6.01835C4.98854 6.18588 5.12426 6.32155 5.29176 6.3885C5.54282 6.48884 5.84528 6.41955 6.02786 6.22036L9.28635 2.96189L9.28621 4.79978L9.2865 4.80639C9.29404 4.97725 9.36721 5.13863 9.4908 5.25688C9.61438 5.37513 9.77882 5.44111 9.94984 5.44111C10.1209 5.44111 10.2853 5.37513 10.4089 5.25688C10.5325 5.13863 10.6058 4.97725 10.6133 4.8064L10.6133 1.3583C10.6128 1.1879 10.5496 1.0126 10.4174 0.887687L10.4147 0.885272C10.2966 0.77895 10.1341 0.692755 9.94955 0.696773Z"
				fill="var(--blue)" />
			<path
				d="M4.15264 0.727539C2.14613 0.727539 0.519531 2.35414 0.519531 4.36064V7.12676C0.519531 9.17021 2.17608 10.8268 4.21953 10.8268H6.96155C8.95403 10.8268 10.5693 9.21153 10.5693 7.21906C10.5693 6.83246 10.2558 6.51906 9.86925 6.51906C9.48265 6.51906 9.16925 6.83246 9.16925 7.21906C9.16925 8.43834 8.18083 9.42676 6.96155 9.42676H4.21953C2.94928 9.42676 1.91953 8.39701 1.91953 7.12676V4.36064C1.91953 3.12733 2.91933 2.12754 4.15264 2.12754C4.53924 2.12754 4.85264 1.81414 4.85264 1.42754C4.85264 1.04094 4.53924 0.727539 4.15264 0.727539Z"
				fill="var(--blue)" />
		</symbol>
		<symbol id="eset-notif-logo" viewBox="0 0 24 20">
			<path fill-rule="evenodd" clip-rule="evenodd"
				d="M22.1718 0H1.82817C0.8185 0 0 0.790946 0 1.76663V18.2334C0 19.2091 0.818501 20 1.82817 20H22.1718C23.1815 20 24 19.2091 24 18.2334V1.76663C24 0.790945 23.1815 0 22.1718 0ZM22.1718 1.2759H1.82817C1.54771 1.2759 1.32035 1.4956 1.32035 1.76663V5.46799H22.6797V1.76663C22.6797 1.4956 22.4523 1.2759 22.1718 1.2759ZM22.6797 6.74389H1.32035V18.2334C1.32035 18.5044 1.54771 18.7241 1.82817 18.7241H22.1718C22.4523 18.7241 22.6797 18.5044 22.6797 18.2334V6.74389Z"
				fill="var(--green)" />
			<path
				d="M13.8963 4.45309C14.4936 4.45309 14.9778 3.9852 14.9778 3.40802C14.9778 2.83085 14.4936 2.36295 13.8963 2.36295C13.299 2.36295 12.8148 2.83085 12.8148 3.40802C12.8148 3.9852 13.299 4.45309 13.8963 4.45309Z"
				fill="var(--green)" />
			<path
				d="M21.1429 4.14958C21.5653 3.74146 21.5653 3.07976 21.1429 2.67164C20.7206 2.26352 20.0359 2.26351 19.6135 2.67164C19.1912 3.07976 19.1912 3.74146 19.6135 4.14958C20.0359 4.5577 20.7206 4.5577 21.1429 4.14958Z"
				fill="var(--green)" />
			<path
				d="M17.3813 4.42421C17.9625 4.29157 18.3225 3.7287 18.1852 3.16699C18.048 2.60528 17.4655 2.25745 16.8842 2.39008C16.3029 2.52272 15.943 3.08559 16.0802 3.6473C16.2175 4.20901 16.8 4.55685 17.3813 4.42421Z"
				fill="var(--green)" />
			<path
				d="M15.3613 8.62065C15.2576 8.49181 15.1243 8.3916 14.9687 8.32717C14.8132 8.26275 14.6428 8.23412 14.4724 8.24128C12.9391 8.2198 11.4058 8.24128 9.86502 8.24128H9.41317C9.15391 8.24843 8.90946 8.34865 8.73169 8.5276C8.55391 8.70655 8.45021 8.94276 8.45761 9.18614C8.42798 9.9091 8.45761 10.6464 8.45761 11.3693C8.41317 12.4502 8.67984 13.5239 9.22798 14.4759C9.78354 15.3993 10.7909 16.5374 12.0058 16.5732C13.065 16.5446 13.9465 15.6427 14.5095 14.8696C15.1835 13.9605 15.5465 12.8797 15.5465 11.7702V9.50825C15.5835 9.20045 15.5243 8.8855 15.3613 8.62065ZM14.2058 13.7887C13.9317 14.3184 13.5613 14.798 13.1021 15.1989C12.8206 15.4924 12.4502 15.6856 12.0428 15.7572V9.04298H13.9095C14.1095 9.03582 14.3169 9.03582 14.5169 9.04298C14.6798 9.05729 14.6947 9.12887 14.7021 9.27203C14.7539 9.93773 14.7021 10.6034 14.7021 11.2691C14.7465 12.1424 14.5761 13.0014 14.2058 13.7887Z"
				fill="var(--green)" />
		</symbol>
		<symbol id="x-close-icon" viewBox="0 0 14 14">
			<path d="M1.94922 1.55273L12.9976 12.6011" stroke="var(--header-text-color)" stroke-width="2"
				stroke-linecap="round" />
			<path d="M1.94922 12.5967L12.9972 1.54868" stroke="var(--header-text-color)" stroke-width="2"
				stroke-linecap="round" />
		</symbol>
	</defs>
</svg>