<svg width="22" height="13" viewBox="0 0 22 13" fill="none" xmlns="http://www.w3.org/2000/svg">
<path d="M10.3968 1.50187C12.5455 1.4586 14.6418 2.16739 16.3234 3.50571C18.005 4.84404 19.1662 6.7278 19.6063 8.83142C19.6911 9.23685 20.0885 9.49677 20.4939 9.41195C20.8994 9.32713 21.1593 8.9297 21.0745 8.52426C20.5628 6.07839 19.2127 3.88812 17.2575 2.33205C15.3023 0.775971 12.8649 -0.0481332 10.3666 0.00217414C7.86825 0.0524815 5.46601 0.974039 3.57504 2.60756C1.68408 4.24109 0.42323 6.48392 0.0104227 8.94842C-0.0580055 9.35694 0.217695 9.74359 0.626218 9.81201C1.03474 9.88044 1.42138 9.60474 1.48981 9.19622C1.84485 7.07659 2.92927 5.14761 4.55562 3.74267C6.18197 2.33774 8.24806 1.54514 10.3968 1.50187Z" fill="black"/>
<path fill-rule="evenodd" clip-rule="evenodd" d="M14.5933 8.46875C14.5933 10.6838 12.7976 12.4795 10.5825 12.4795C8.36745 12.4795 6.57178 10.6838 6.57178 8.46875C6.57178 6.25368 8.36745 4.45801 10.5825 4.45801C12.7976 4.45801 14.5933 6.25368 14.5933 8.46875ZM13.0933 8.46875C13.0933 9.8554 11.9692 10.9795 10.5825 10.9795C9.19588 10.9795 8.07178 9.8554 8.07178 8.46875C8.07178 7.08211 9.19588 5.95801 10.5825 5.95801C11.9692 5.95801 13.0933 7.08211 13.0933 8.46875Z" fill="black"/>
</svg>
