<svg width="17" height="24" viewBox="0 0 17 24" fill="none" xmlns="http://www.w3.org/2000/svg">
	<path
		d="M16.7803 14.3575L13.9133 9.79069L13.6454 3.63262H14.1679C14.5431 3.63262 14.903 3.48139 15.1684 3.21219C15.4337 2.94299 15.5828 2.57787 15.5828 2.19716C15.5828 1.81646 15.4337 1.45135 15.1684 1.18215C14.903 0.912952 14.5431 0.761719 14.1679 0.761719H2.83618C2.46095 0.761719 2.10107 0.912952 1.83574 1.18215C1.57041 1.45135 1.42135 1.81646 1.42135 2.19716C1.42135 2.57787 1.57041 2.94299 1.83574 3.21219C2.10107 3.48139 2.46095 3.63262 2.83618 3.63262H3.02212L2.78161 10.3874L0.231896 14.3441C0.0916404 14.561 0.0119276 14.8124 0.00123767 15.0716C-0.00945222 15.3308 0.0492653 15.588 0.17117 15.816C0.293075 16.044 0.473614 16.2343 0.693567 16.3665C0.91352 16.4988 1.16468 16.5681 1.42034 16.567H5.92455L7.10895 22.599C7.17138 22.9263 7.34415 23.2214 7.59761 23.4335C7.85107 23.6457 8.16942 23.7617 8.49801 23.7617C8.8266 23.7617 9.14494 23.6457 9.3984 23.4335C9.65186 23.2214 9.82463 22.9263 9.88706 22.599L11.0775 16.5629H15.5817C15.8358 16.5636 16.0853 16.4948 16.3042 16.3638C16.523 16.2328 16.703 16.0444 16.8253 15.8185C16.9476 15.5926 17.0077 15.3374 16.9992 15.0798C16.9908 14.8221 16.9141 14.5716 16.7773 14.3544L16.7803 14.3575Z"
		fill="#5F6368" />
</svg>