<svg width="22" height="24" viewBox="0 0 22 24" fill="none" xmlns="http://www.w3.org/2000/svg">
	<path fill-rule="evenodd" clip-rule="evenodd"
		d="M11.742 8.40144C11.0041 8.25467 10.2393 8.33 9.54424 8.6179C8.84919 8.9058 8.25512 9.39334 7.83715 10.0189C7.41919 10.6444 7.1961 11.3798 7.1961 12.1321C7.1961 13.141 7.59685 14.1085 8.3102 14.8218C9.02355 15.5352 9.99105 15.9359 10.9999 15.9359C11.7522 15.9359 12.4876 15.7128 13.1131 15.2949C13.7387 14.8769 14.2262 14.2828 14.5141 13.5878C14.802 12.8927 14.8773 12.1279 14.7306 11.39C14.5838 10.6522 14.2215 9.97442 13.6896 9.44245C13.1576 8.91048 12.4798 8.54821 11.742 8.40144ZM9.33614 10.4684C9.77739 10.0271 10.3759 9.77924 10.9999 9.77924C11.4652 9.77924 11.9201 9.91724 12.3071 10.1758C12.694 10.4343 12.9956 10.8018 13.1737 11.2317C13.3517 11.6617 13.3983 12.1347 13.3076 12.5912C13.2168 13.0476 12.9927 13.4668 12.6636 13.7959C12.3346 14.1249 11.9153 14.349 11.4589 14.4398C11.0025 14.5306 10.5294 14.484 10.0995 14.3059C9.66953 14.1278 9.30206 13.8263 9.04352 13.4393C8.78499 13.0524 8.64699 12.5975 8.64699 12.1321C8.64699 11.5081 8.89489 10.9096 9.33614 10.4684Z"
		fill="black" />
	<path fill-rule="evenodd" clip-rule="evenodd"
		d="M1.11453 18.5566C1.75584 19.4713 2.96334 19.8449 4.00851 19.4551L5.5287 18.9114C6.22433 19.472 7.00223 19.922 7.83494 20.2456L8.12765 21.8653L8.12927 21.8737C8.28619 22.6907 8.81057 23.2463 9.34927 23.5636C9.87084 23.8709 10.4581 23.9956 10.9883 23.9999C11.8847 24.0071 13.5506 23.5792 13.8782 21.8737L13.8807 21.8608L14.1643 20.2372C14.9949 19.9141 15.7709 19.4653 16.4651 18.9065L18.0004 19.4556C19.0525 19.8461 20.2666 19.4623 20.9021 18.5357L20.9138 18.5186L20.9251 18.5013C21.1408 18.1682 21.3391 17.8242 21.5191 17.4706L21.5323 17.4446L21.5446 17.4182C22.0146 16.4031 21.7321 15.1695 20.87 14.4593L19.641 13.4163C19.7795 12.534 19.7795 11.6354 19.641 10.7531L20.87 9.71006C21.7321 8.99992 22.0146 7.76629 21.5446 6.75124L21.5323 6.72477L21.5191 6.69877C21.3391 6.34517 21.1408 6.00115 20.9251 5.66811L20.9097 5.64433L20.8934 5.62113C20.2533 4.70714 19.0482 4.33174 18.0028 4.71805L16.4758 5.26078C15.781 4.70128 15.0041 4.25205 14.1725 3.92888L13.8798 2.30925L13.8782 2.30082C13.6593 1.16105 12.6546 0.302331 11.4946 0.263568L11.4685 0.262695H11.4424C11.1378 0.262695 10.8363 0.266258 10.5379 0.273405L10.5231 0.273829C9.36316 0.312592 8.35845 1.17131 8.13953 2.31108L8.13791 2.31951L7.84521 3.93914C7.01401 4.26217 6.23743 4.71116 5.54276 5.27034L4.01058 4.72021C2.95841 4.32595 1.74136 4.70576 1.1012 5.63112L1.08765 5.6507L1.07471 5.67067C0.859004 6.00372 0.660721 6.34774 0.480669 6.70134L0.466662 6.72885L0.453751 6.75689C-0.0133191 7.77133 0.269212 9.00233 1.1294 9.7123L2.36131 10.756C2.22287 11.6382 2.22289 12.5366 2.36136 13.4188L1.13247 14.4618C0.264792 15.1762 -0.0137856 16.4212 0.469687 17.4378L0.477763 17.4548L0.486245 17.4716C0.666402 17.828 0.865556 18.1746 1.08284 18.5097L1.09826 18.5334L1.11453 18.5566ZM1.88161 16.7663C2.03654 17.0729 2.2078 17.3709 2.39466 17.659C2.62848 17.9925 3.08927 18.1333 3.46951 17.9874L5.29856 17.3333C5.64304 17.2135 6.04088 17.2895 6.3144 17.5308C6.99834 18.1234 7.78884 18.5805 8.64368 18.8776C8.98755 18.9962 9.25275 19.3047 9.31835 19.6625L9.66466 21.5788C9.88053 22.7026 12.1194 22.7422 12.3428 21.5788L12.6789 19.6548C12.7445 19.297 13.0097 18.9885 13.3535 18.8699C14.2084 18.5728 14.9989 18.1157 15.6828 17.5231C15.9597 17.2821 16.3642 17.2072 16.7089 17.3333L18.538 17.9874C18.9197 18.1327 19.3818 17.9882 19.6128 17.6514C19.7991 17.3637 19.9704 17.0666 20.1259 16.7612C20.2979 16.3896 20.188 15.9179 19.8693 15.6607L18.3943 14.4088C18.1174 14.1738 17.9824 13.7908 18.0506 13.434C18.225 12.5429 18.225 11.6265 18.0506 10.7354C17.9824 10.3786 18.1174 9.99563 18.3943 9.76056L19.8693 8.5087C20.188 8.25151 20.2979 7.77977 20.1259 7.4082C19.9704 7.10281 19.7991 6.80569 19.6128 6.51805C19.3791 6.18438 18.9189 6.04268 18.538 6.18713L16.7192 6.83358C16.3744 6.95962 15.9699 6.88479 15.6931 6.64375C15.0091 6.0511 14.2186 5.59404 13.3638 5.29698C13.0199 5.17835 12.7547 4.86979 12.6891 4.512L12.3428 2.59574C12.2616 2.17302 11.8726 1.84053 11.4424 1.82616C11.15 1.82616 10.8609 1.82958 10.5753 1.83642C10.1451 1.85079 9.75611 2.18328 9.67492 2.606L9.32861 4.52226C9.26301 4.88005 8.99781 5.18862 8.65394 5.30724C7.7991 5.6043 7.00861 6.06136 6.32467 6.65401C6.04781 6.89505 5.64332 6.96988 5.29856 6.84384L3.46951 6.18713C3.08612 6.03933 2.62074 6.1827 2.38697 6.52061C2.20066 6.80826 2.02941 7.10537 1.87391 7.41077C1.70276 7.7825 1.81255 8.25353 2.13044 8.51127L3.60804 9.76312C3.8849 9.99819 4.01996 10.3812 3.95179 10.7379C3.77735 11.629 3.77735 12.5455 3.95179 13.4366C4.01996 13.7933 3.8849 14.1763 3.60804 14.4114L2.133 15.6633C1.81346 15.921 1.70529 16.3956 1.88161 16.7663Z"
		fill="black" />
</svg>