<svg width="22" height="25" viewBox="0 0 22 25" fill="none" xmlns="http://www.w3.org/2000/svg">
<path d="M14.6286 6.25V6.9H15.2786H20.2198C20.5358 6.9 20.8051 7.16136 20.8051 7.5V23.75C20.8051 24.0886 20.5358 24.35 20.2198 24.35H1.69037C1.37435 24.35 1.10508 24.0886 1.10508 23.75V18.5777H4.16096C5.89164 18.5777 7.28155 17.1602 7.28155 15.4277C7.28155 13.6953 5.89164 12.2777 4.16096 12.2777H1.10508V7.5C1.10508 7.16136 1.37435 6.9 1.69037 6.9H6.63155H7.28155V6.25V4.375C7.28155 2.31047 8.93347 0.65 10.9551 0.65C12.9767 0.65 14.6286 2.31047 14.6286 4.375V6.25Z" stroke="black" stroke-width="1.3"/>
</svg>
