<svg width="25" height="26" viewBox="0 0 25 26" fill="none" xmlns="http://www.w3.org/2000/svg">
	<path
		d="M22.0208 12.665H20.2352V7.90325C20.2352 7.2718 19.9843 6.66622 19.5378 6.21973C19.0914 5.77323 18.4858 5.52239 17.8543 5.52239H13.0926V3.73675C13.0926 2.94772 12.7792 2.19101 12.2213 1.63308C11.6633 1.07516 10.9066 0.761719 10.1176 0.761719C9.32857 0.761719 8.57185 1.07516 8.01393 1.63308C7.456 2.19101 7.14255 2.94772 7.14255 3.73675V5.52239H2.38086C1.74942 5.52239 1.14382 5.77323 0.697326 6.21973C0.25083 6.66622 0 7.2718 0 7.90325V12.665H1.7846C2.57363 12.665 3.33034 12.9784 3.88827 13.5363C4.4462 14.0942 4.75963 14.851 4.75963 15.64C4.75963 16.429 4.4462 17.1857 3.88827 17.7437C3.33034 18.3016 2.57363 18.615 1.7846 18.615H0.00413834V23.3767C0.00413834 23.6894 0.0657233 23.999 0.185372 24.2878C0.305021 24.5767 0.480398 24.8392 0.70148 25.0602C0.922563 25.2813 1.18502 25.4567 1.47388 25.5763C1.76274 25.696 2.07234 25.7576 2.385 25.7576H7.14669V23.9678C7.14669 23.1788 7.46014 22.4221 8.01807 21.8641C8.57599 21.3062 9.33271 20.9928 10.1217 20.9928C10.9108 20.9928 11.6675 21.3062 12.2254 21.8641C12.7833 22.4221 13.0968 23.1788 13.0968 23.9678V25.7524H17.8585C18.1711 25.7524 18.4807 25.6908 18.7696 25.5712C19.0584 25.4515 19.3209 25.2761 19.542 25.0551C19.7631 24.834 19.9384 24.5715 20.0581 24.2827C20.1777 23.9938 20.2393 23.6842 20.2393 23.3715V18.6098H22.025C22.814 18.6098 23.5707 18.2964 24.1286 17.7385C24.6866 17.1805 25 16.4238 25 15.6348C25 14.8458 24.6866 14.0891 24.1286 13.5311C23.5707 12.9732 22.814 12.6598 22.025 12.6598L22.0208 12.665Z"
		fill="#5F6368" />
</svg>