<svg width="22" height="25" viewBox="0 0 22 25" fill="none" xmlns="http://www.w3.org/2000/svg">
<path fill-rule="evenodd" clip-rule="evenodd" d="M12.4993 1.44344C11.2429 1.44344 10.2084 2.39748 10.0821 3.62018C10.0442 3.98812 9.73414 4.26779 9.36424 4.26779H4.59023C4.45737 4.26779 4.34966 4.37549 4.34966 4.50836V9.22882C4.34966 9.6059 4.05937 9.91943 3.68341 9.9484C2.43053 10.045 1.44344 11.0932 1.44344 12.3712C1.44344 13.6493 2.43053 14.6975 3.68341 14.7941C4.05937 14.8231 4.34966 15.1366 4.34966 15.5137V20.2341C4.34966 20.367 4.45737 20.4747 4.59023 20.4747H9.33686C9.69378 20.4747 9.99709 20.7356 10.0505 21.0885C10.227 22.2561 11.2362 23.1513 12.4531 23.1513C13.67 23.1513 14.6792 22.2561 14.8558 21.0885C14.9091 20.7356 15.2124 20.4747 15.5694 20.4747H20.316C20.4489 20.4747 20.5566 20.367 20.5566 20.2341V16.1777C18.7621 15.8395 17.4047 14.2639 17.4047 12.3712C17.4047 10.4786 18.7621 8.90293 20.5566 8.56479V4.50836C20.5566 4.37549 20.4489 4.26779 20.316 4.26779H15.6343C15.2644 4.26779 14.9544 3.98812 14.9164 3.62018C14.7902 2.39748 13.7557 1.44344 12.4993 1.44344ZM8.76965 2.82435C9.22729 1.19459 10.7234 0 12.4993 0C14.2751 0 15.7713 1.19459 16.2289 2.82435H20.316C21.246 2.82435 22 3.57831 22 4.50836V9.21939C22 9.61798 21.6769 9.94111 21.2783 9.94111C19.9362 9.94111 18.8482 11.0291 18.8482 12.3712C18.8482 13.7134 19.9362 14.8014 21.2783 14.8014C21.6769 14.8014 22 15.1245 22 15.5231V20.2341C22 21.1642 21.246 21.9181 20.316 21.9181H16.138C15.6336 23.4718 14.175 24.5947 12.4531 24.5947C10.7312 24.5947 9.27262 23.4718 8.76822 21.9181H4.59023C3.66018 21.9181 2.90622 21.1642 2.90622 20.2341V16.1229C1.23476 15.6931 0 14.1766 0 12.3712C0 10.5658 1.23476 9.04937 2.90622 8.61956V4.50836C2.90622 3.5783 3.66018 2.82435 4.59023 2.82435H8.76965Z" fill="black"/>
</svg>
