<svg width="21" height="18" viewBox="0 0 21 18" fill="none" xmlns="http://www.w3.org/2000/svg">
<path d="M20.9532 8.96288C20.9063 8.81654 20.8241 8.67886 20.7065 8.56283L13.0934 1.05121C12.7022 0.665223 12.068 0.665223 11.6768 1.05121C11.2856 1.43719 11.2856 2.06299 11.6768 2.44898L17.5804 8.27393H1.00172C0.448484 8.27393 0 8.71643 0 9.2623C0 9.80816 0.448484 10.2507 1.00172 10.2507H17.5792L11.6768 16.0745C11.2856 16.4604 11.2856 17.0862 11.6768 17.4722C12.068 17.8582 12.7022 17.8582 13.0934 17.4722L20.6838 9.983C20.8784 9.8027 21 9.54651 21 9.2623C21 9.15792 20.9836 9.05732 20.9532 8.96288Z" fill="#B7B9BB"/>
</svg>
